<?xml version="1.0" encoding="UTF-8" standalone="no"?>
<svg
   width="78.020439"
   height="124.37024"
   version="1.1"
   id="svg216"
   xml:space="preserve"
   xmlns="http://www.w3.org/2000/svg"
   xmlns:svg="http://www.w3.org/2000/svg"><defs
     id="defs54" /><defs
     id="defs74" /><defs
     id="defs76" /><defs
     id="defs78" /><defs
     id="defs84" /><defs
     id="defs96" /><defs
     id="defs102" /><defs
     id="defs104" /><defs
     id="defs106" /><defs
     id="defs108" /><defs
     id="defs111" /><defs
     id="defs123" /><defs
     id="defs126" /><defs
     id="defs129" /><defs
     id="defs131" /><defs
     id="defs141" /><defs
     id="defs145" /><defs
     id="defs147" /><defs
     id="defs149" /><defs
     id="defs151" /><defs
     id="defs158" /><defs
     id="defs165" /><defs
     id="defs171" /><defs
     id="defs178" /><defs
     id="defs187" /><defs
     id="defs195" /><defs
     id="defs198" /><defs
     id="defs205" /><g
     id="g339"
     style="display:inline"
     transform="translate(-34.996129,-601.34595)"><path
       d="m 46.480292,711.66203 2.019115,0.8944 q 1.176229,0.52102 1.562047,1.19322 0.385819,0.67219 -0.01075,1.56746 -0.170863,0.38572 -0.426484,0.65415 -0.253512,0.26367 -0.553204,0.38726 -0.294931,0.1257 -0.604338,0.0912 l -0.02109,0.0476 q 0.313401,0.26984 0.440184,0.58804 0.128893,0.31344 0.09022,0.68366 -0.0318,0.36758 -0.219542,0.7914 -0.278444,0.6286 -0.752386,0.96552 -0.473943,0.33692 -1.088411,0.36095 -0.609707,0.0261 -1.304968,-0.28184 l -2.214359,-0.98088 z m 0.456936,3.44369 0.361917,0.16032 q 0.309534,0.13711 0.556364,0.03 0.24683,-0.10713 0.405037,-0.46428 0.143441,-0.32382 0.04849,-0.55956 -0.09495,-0.23574 -0.433058,-0.38551 l -0.333344,-0.14766 z m -0.573763,1.29528 -0.700329,1.58101 0.428586,0.18985 q 0.338106,0.14977 0.591265,0.0284 0.255268,-0.12618 0.434569,-0.53095 0.10969,-0.24763 0.104674,-0.45492 0.0019,-0.20995 -0.115213,-0.37004 -0.110198,-0.16274 -0.334015,-0.26189 z m 9.915314,3.03516 q -0.295272,0.91172 -0.69992,1.5526 -0.398088,0.63753 -0.903946,0.99927 -0.499298,0.35839 -1.093247,0.43429 -0.587389,0.0726 -1.261265,-0.1457 -0.668921,-0.21664 -1.105605,-0.62632 -0.436684,-0.40969 -0.636037,-0.99435 -0.197747,-0.58961 -0.149857,-1.34603 0.04789,-0.75643 0.343162,-1.66814 0.391558,-1.20901 0.971713,-1.93539 0.58511,-0.72478 1.337533,-0.95192 0.757379,-0.22553 1.654229,0.0649 0.901804,0.29206 1.374862,0.91061 0.478013,0.62016 0.520579,1.5537 0.04417,0.92858 -0.352201,2.15245 z m -3.716226,-1.20355 q -0.239106,0.73829 -0.290571,1.26909 -0.05147,0.5308 0.08136,0.84755 0.139386,0.3134 0.456504,0.41611 0.327028,0.10591 0.612165,-0.0645 0.290091,-0.16883 0.54806,-0.62728 0.264528,-0.4618 0.510054,-1.21991 0.3723,-1.14955 0.310984,-1.77162 -0.05476,-0.62543 -0.535389,-0.78109 -0.317118,-0.1027 -0.616979,0.0794 -0.293301,0.17875 -0.564389,0.64389 -0.269484,0.4602 -0.5118,1.2084 z m 10.763799,2.74515 q -0.194748,0.93834 -0.527573,1.61929 -0.326666,0.67691 -0.79035,1.09133 -0.457527,0.41038 -1.039755,0.55019 -0.57607,0.13577 -1.269626,-0.008 -0.688456,-0.14288 -1.16696,-0.50284 -0.478503,-0.35996 -0.740031,-0.91958 -0.260469,-0.56471 -0.294821,-1.32187 -0.03435,-0.75716 0.160396,-1.6955 0.258252,-1.24432 0.756287,-2.02928 0.503134,-0.78391 1.226517,-1.09124 0.728483,-0.30627 1.651524,-0.11469 0.92814,0.19263 1.465435,0.75628 0.542394,0.56472 0.68586,1.48814 0.144525,0.91833 -0.116903,2.17795 z m -3.824755,-0.79381 q -0.157704,0.75985 -0.151352,1.2931 0.0064,0.53326 0.172717,0.83375 0.172523,0.29646 0.498902,0.36419 0.336578,0.0699 0.601569,-0.13047 0.270089,-0.19927 0.476866,-0.68297 0.212934,-0.48774 0.374871,-1.26799 0.245552,-1.18313 0.117193,-1.7949 -0.122201,-0.61581 -0.616869,-0.71847 -0.326379,-0.0677 -0.604744,0.14577 -0.272206,0.20947 -0.491299,0.70126 -0.218034,0.48668 -0.377854,1.25673 z m 10.407225,5.35631 -1.994927,-0.20286 -0.816522,-2.93622 -0.4544,0.24697 -0.257659,2.53381 -1.803207,-0.18336 0.770342,-7.57554 1.803207,0.18336 -0.334588,3.29034 q 0.06982,-0.22325 0.19769,-0.45107 0.133052,-0.22729 0.294646,-0.47785 l 1.453739,-2.19755 1.94311,0.19759 -2.169059,3.2085 z m 5.507587,-2.24066 q -0.0076,0.70829 -0.310315,1.25196 -0.297457,0.53851 -0.837237,0.84524 -0.539723,0.30152 -1.26885,0.29371 -0.328107,-0.004 -0.640088,-0.0537 -0.306828,-0.045 -0.612986,-0.15242 -0.306159,-0.10745 -0.632312,-0.29325 l 0.01965,-1.83324 q 0.444654,0.30687 0.911536,0.48376 0.472146,0.17174 0.86275,0.17593 0.223946,0.002 0.365345,-0.069 0.146607,-0.0714 0.215652,-0.19562 0.07431,-0.12942 0.07609,-0.29608 0.0018,-0.16666 -0.05399,-0.30789 -0.05573,-0.14644 -0.251788,-0.32042 -0.196008,-0.1792 -0.60986,-0.44407 -0.331026,-0.2171 -0.599556,-0.43354 -0.268473,-0.22164 -0.458435,-0.4789 -0.184698,-0.26241 -0.28523,-0.60205 -0.09532,-0.33958 -0.09041,-0.79789 0.0073,-0.67705 0.278229,-1.17418 0.270971,-0.49712 0.789527,-0.76762 0.518556,-0.2705 1.268516,-0.26246 0.473932,0.005 0.951621,0.14563 0.477689,0.14054 0.964287,0.42182 l -0.501378,1.58326 q -0.393132,-0.25423 -0.730371,-0.37764 -0.337239,-0.12342 -0.62889,-0.12654 -0.192698,-0.002 -0.318417,0.0643 -0.120455,0.0612 -0.178916,0.16996 -0.05846,0.10876 -0.05997,0.24938 -0.0022,0.20311 0.06396,0.34966 0.06614,0.14655 0.272677,0.31544 0.211799,0.16374 0.64122,0.43399 0.455293,0.28614 0.764426,0.60198 0.314341,0.31589 0.471659,0.70301 0.157318,0.38713 0.151846,0.89752 z m 4.593653,2.04055 -1.797299,0.13131 -0.4406,-6.03082 -1.371349,0.10019 -0.11423,-1.56355 4.529609,-0.33092 0.11423,1.56354 -1.360961,0.0994 z m 6.667914,-0.89397 -0.527371,-1.4168 -1.623296,0.27147 -0.0377,1.5113 -1.936653,0.32387 0.572813,-7.81615 2.357889,-0.39431 3.110425,7.20019 z m -1.061632,-2.90638 -0.584001,-1.62911 q -0.09862,-0.27395 -0.189524,-0.53334 -0.08577,-0.26025 -0.162103,-0.49568 -0.07206,-0.24142 -0.132965,-0.44775 0.01296,0.20378 0.01737,0.45124 0.0096,0.24659 0.008,0.52145 -0.0024,0.26972 -0.0065,0.56084 l -0.03414,1.75362 z m 4.202086,1.36535 q -0.115884,-0.46495 0.06877,-0.77935 0.189706,-0.31567 0.65465,-0.43156 0.449783,-0.1121 0.750289,0.0814 0.305561,0.19223 0.421445,0.65717 0.114625,0.45989 -0.07003,0.7743 -0.179599,0.31315 -0.619274,0.42274 -0.444729,0.11084 -0.770504,-0.0764 -0.320721,-0.18844 -0.435347,-0.64833 z m 3.678099,-8.04248 q 0.840301,-0.27904 1.477641,-0.22725 0.63734,0.0518 1.071719,0.43439 0.432738,0.37766 0.67074,1.09439 0.139519,0.42015 0.148955,0.81215 0.0094,0.392 -0.111212,0.75586 -0.120647,0.36385 -0.37632,0.7012 l 2.553168,2.64803 -1.893148,0.62866 -2.033062,-2.3378 -0.222433,0.0739 0.901127,2.71368 -1.720145,0.57121 -2.399722,-7.22659 z m 0.457875,1.44496 -0.192775,0.064 0.577771,1.73992 0.182889,-0.0607 q 0.38555,-0.12803 0.499538,-0.42931 0.113988,-0.30128 -0.04523,-0.78074 -0.131312,-0.39544 -0.388102,-0.5242 -0.253487,-0.13534 -0.634094,-0.009 z m 9.130916,0.46296 q 0.28281,0.64942 0.22898,1.26935 -0.0511,0.61308 -0.41822,1.11378 -0.36916,0.49592 -1.03769,0.78705 -0.30084,0.13101 -0.60607,0.2128 -0.29837,0.0845 -0.6217,0.11168 -0.32332,0.0272 -0.696944,-0.009 l -0.731987,-1.68087 q 0.531277,0.0981 1.029671,0.0685 0.50109,-0.0364 0.85923,-0.19239 0.20534,-0.0894 0.30515,-0.21242 0.1046,-0.12508 0.11677,-0.26671 0.0149,-0.1485 -0.0517,-0.3013 -0.0665,-0.15281 -0.17522,-0.25887 -0.11075,-0.11083 -0.36083,-0.18939 -0.25217,-0.0833 -0.73816,-0.15574 -0.390874,-0.0627 -0.724443,-0.15034 -0.33565,-0.0924 -0.614228,-0.24947 -0.275882,-0.1639 -0.506554,-0.4327 -0.225896,-0.27087 -0.408892,-0.69109 -0.270335,-0.62078 -0.226431,-1.18525 0.0439,-0.56448 0.406436,-1.02343 0.362532,-0.45896 1.050162,-0.75841 0.434546,-0.18923 0.92793,-0.25639 0.49339,-0.0672 1.05247,-0.01 l 0.19015,1.64984 q -0.46273,-0.0712 -0.82094,-0.0458 -0.35822,0.0253 -0.625634,0.14179 -0.17668,0.0769 -0.26426,0.18893 -0.08487,0.10513 -0.09373,0.22829 -0.0089,0.12315 0.04729,0.25208 0.0811,0.18623 0.2014,0.29291 0.12031,0.10667 0.377864,0.17629 0.26025,0.0628 0.76264,0.13371 0.53251,0.0749 0.9438,0.23661 0.41605,0.15966 0.71797,0.44857 0.30191,0.2889 0.5057,0.75687 z"
       id="text28"
       style="font-size:10.6667px;line-height:0.9;font-family:'Open Sans';-inkscape-font-specification:'Open Sans, @wght=800,wdth=75';font-variation-settings:'wdth' 75, 'wght' 800;text-align:center;letter-spacing:1px;text-anchor:middle;fill:#187d5b;fill-opacity:1;stroke-width:0.377953"
       aria-label="BOOKSTA.RS" /><g
       id="g337"
       transform="translate(231.39174,3.3932095)"
       style="display:inline"><path
         id="path66"
         style="display:inline;fill:#0f503c;fill-opacity:1;stroke-width:0.278911"
         d="m -176.4142,597.9583 c -1.55616,0.0903 -1.97892,1.18743 -1.95507,2.68945 -0.47743,-0.11741 -1.08335,-0.12389 -1.85743,0.0176 -2.08625,0.0129 -2.29465,1.8218 -2.09765,4.01563 -5.2953,-0.96213 -2.22214,6.11932 -2.72656,9.50781 -0.17051,0.69244 -0.21858,1.25317 -0.16797,1.69727 -1.95706,2.13819 -3.82332,4.41062 -5.85157,6.41797 -1.63582,1.96007 -3.14698,5.24821 -2.74414,7.58398 -1.39868,4.08617 -1.72039,8.76861 -2.2832,13.07813 -0.33897,5.03993 -1.04668,10.68587 2.41602,14.89062 4.08552,6.65933 9.33631,12.69458 15.88085,17.0332 1.56773,1.3451 4.28495,7.27162 4.84766,6.14258 -0.0217,-0.1493 -0.05,-0.29801 -0.0723,-0.44726 0.214,0.30973 0.4537,0.56999 0.71875,0.76562 -1.10427,0.73858 -2.22015,1.46054 -3.36329,2.14063 -2.98236,1.47007 -0.97235,5.52785 1.28321,6.57421 -0.29315,0.0917 -0.58634,0.18751 -0.87696,0.29298 -0.58889,2.76657 0.30381,4.14826 1.875,4.77734 -4.10383,3.41439 -4.87569,13.13409 2.01758,12.91601 0.24218,0.0513 0.459,0.0687 0.6543,0.0586 1.16258,1.26433 3.69051,1.6261 5.28515,0.95507 0.76795,0.81551 2.05387,1.12292 3.9629,0.69923 0.79701,0.11751 1.37018,-0.0198 1.80273,-0.31249 0.91515,0.62069 2.337,0.70564 4.18555,0.28125 0.43709,-0.14648 0.79952,-0.34133 1.10156,-0.57422 0.65354,0.81894 1.78125,1.10903 3.65039,0.49217 0.67876,-0.0959 1.17843,-0.3615 1.56641,-0.73242 0.0999,0.12595 0.21021,0.24025 0.33008,0.34375 2.65147,0.21931 4.06879,-0.64495 4.79296,-2.07813 0.48173,0.37469 1.13243,0.59812 2.05078,0.58203 5.94772,-0.46528 4.70637,-8.93378 1.57032,-12.00585 -0.0526,-0.0332 -0.12034,-0.0762 -0.17578,-0.11133 2.42445,-1.66844 1.52275,-3.96037 -0.43946,-5.33594 2.8792,-1.6612 4.73905,-7.07652 3.05078,-9.96094 -0.0508,-0.18516 -0.0886,-0.31352 -0.13476,-0.47851 5.51114,-6.38538 11.39337,-12.4851 16.12109,-19.46875 3.75104,-4.72215 4.02154,-10.73228 3.30664,-16.47656 -1.06035,-4.01142 -0.51883,-9.30419 -1.9375,-13.23243 0.3825,-0.7099 0.42071,-1.7199 -0.0566,-3.17382 -0.29308,-6.38465 -7.55421,-9.34241 -9.16601,-15.16016 0.2774,-3.54994 1.2159,-8.059 -2.07422,-7.92969 -0.35461,0.0184 -0.67277,0.0645 -0.96094,0.13477 -0.22483,-1.76213 -0.96304,-3.28096 -3.23633,-3.18555 -0.0308,-0.005 -0.0577,-0.007 -0.0879,-0.0117 0.0747,-1.07771 0.14942,-2.15577 0.23828,-3.23047 -1.04355,-0.0306 -2.08614,-0.11486 -3.13086,-0.0937 -5.71358,0.51168 -11.97764,1.30042 -16.5996,4.97265 -0.40165,0.43982 -0.71979,0.9105 -0.99024,1.39844 -0.004,-0.1643 -0.005,-0.3321 -0.01,-0.49609 -2.99973,-2.65146 -7.30359,-4.03332 -11.27735,-4.97657 -2.6287,-0.56975 -5.31279,-1.0089 -8.00976,-0.98632 -0.15066,-0.007 -0.29225,-0.008 -0.42578,0 z m 9.08789,28.61523 c 3.36951,-0.0312 6.686,0.4949 9.85743,2.10938 0.0407,0.0194 0.0765,0.0306 0.11523,0.0469 0.0611,0.0647 0.11758,0.12991 0.1875,0.19336 0.0531,-0.0283 0.10698,-0.0524 0.16016,-0.0801 0.44997,0.0934 0.72678,-0.0768 0.85937,-0.41797 7.99901,-3.63865 16.93308,-0.68718 25.1875,0.44531 0.009,0.002 0.0184,0.004 0.0273,0.006 0.64347,0.52229 1.36857,0.96543 2.10743,1.23437 0.0772,0.22444 0.13864,0.45451 0.18554,0.6875 -0.4703,1.35495 -0.56727,3.00252 -0.45117,4.6836 -0.49207,4.95701 -1.15516,10.00049 -1.43164,14.91601 -2.27364,1.90848 -5.12066,3.93732 -6.6582,6.51953 -0.14411,-0.005 -0.312,0.0235 -0.50195,0.0859 2.34369,-1.92309 3.55647,-5.2811 1.1289,-6.17187 2.69234,-1.82397 5.42061,-6.85805 0.63672,-5.70508 -1.0845,0.22688 -2.09202,0.19868 -3.05274,0.01 1.8975,-1.50785 1.67065,-2.88458 0.46876,-4.06836 -0.81949,-1.16982 -2.55541,-2.17408 -4.30079,-2.8125 0.87375,-1.37257 0.23151,-2.54865 -1.00781,-3.40821 -0.12539,-0.20225 -0.29315,-0.42443 -0.51367,-0.67578 -0.0701,-0.26057 -0.15603,-0.51177 -0.25586,-0.75586 -0.10181,-0.61295 -0.45794,-1.33402 -1.15039,-2.16601 -1.90952,-1.92603 -4.62733,-3.16674 -7.35742,-3.13867 -2.10039,-0.2065 -3.40626,0.69685 -3.97657,1.88867 -0.8644,-1.19358 -2.51683,-1.92767 -4.11914,-1.83594 -3.35707,-0.6953 -9.29654,3.60723 -8.22851,6.35157 -0.77477,0.35337 -1.49112,0.78194 -2.11914,1.32616 -0.28798,1.06714 -0.21151,1.88066 0.11328,2.48633 -4.14669,0.39283 -5.61576,4.96597 -3.33594,6.50782 -1.55676,0.40543 -3.1652,0.59363 -4.89453,0.33203 -3.33271,-0.28294 -0.50558,3.46359 1.75586,5.2539 -0.4746,0.12638 -0.89697,0.28656 -1.24023,0.51172 -0.94482,3.05349 0.65605,4.58614 2.91015,5.08203 -0.11545,0.36894 -0.0741,0.7761 0.17774,1.24024 -0.27975,-0.0593 -0.56511,-0.10872 -0.86133,-0.14258 -1.00589,-1.58542 -2.42631,-2.96102 -4.12891,-4.06445 -5.16867,-2.72525 -2.67343,-9.33503 -4.05664,-14.19141 -0.42181,-1.89168 -0.19244,-4.26743 -0.4375,-6.27734 0.008,-0.3738 -0.0516,-0.84395 -0.20898,-1.45899 0.46793,-0.73189 1.25654,-1.48693 2.0664,-2.26562 5.32401,-0.72933 10.90182,-2.23093 16.34375,-2.28125 z m -5.10156,32.3379 c 0.0225,0.0699 0.0472,0.13962 0.0762,0.21093 -0.0723,-0.0638 -0.14018,-0.13208 -0.21484,-0.19336 0.0464,-0.005 0.0924,-0.0114 0.13867,-0.0176 z" /><g
         id="g336"
         transform="matrix(0.27891058,0,0,0.27891058,-229.89172,419.50979)"
         style="display:inline;fill:#ffdb89;fill-opacity:1"><path
           id="path188"
           style="display:inline;fill:#ffdb89;fill-opacity:1"
           d="m 202.89336,977.38152 c 10.34823,-3.39699 21.38867,-3.22161 32.14907,-3.81951 28.24358,-1.59357 50.68176,-0.6818 80.82187,4.07489 4.25773,2.03835 2.53753,8.09865 -0.52447,7.99733 -38.85019,-5.44384 -60.2382,-7.17693 -103.21679,-1.89368 -3.6378,0.64048 -9.65367,0.28369 -9.28494,-3.09368 -0.008,-1.08865 0.0132,-2.17788 0.0553,-3.2653 z" /><path
           fill="#f4f2e4"
           d="m 195.26136,862.25852 c 3.636,0.933 8.118,3.305 10.566,6.213 1.339,1.591 2.016,3.525 2.475,5.523 1.006,4.376 1.126,8.972 1.97,13.396 1.944,10.192 4.58,20.471 7.449,30.447 0.617,2.146 2.485,6.928 2.145,8.953 -0.255,1.52 -1.641,2.389 -2.771,3.27 -2.107,1.319 -4.338,2.359 -6.609,3.361 -2.314,-4.179 -3.572,-9.108 -4.883,-13.679 -1.869,-6.511 -3.519,-13.116 -5.495,-19.592 -0.965,-3.163 -2.723,-5.935 -3.224,-9.258 -1.435,-9.531 -1.004,-19.056 -1.623,-28.634 z"
           id="path189"
           style="display:inline;fill:#ffdb89;fill-opacity:1" /><path
           id="path273"
           d="m 269.91636,882.81152 c 1.188,0.824 4.37,2.15 4.946,3.247 -0.643,0.798 -1.275,1.749 -2.017,2.447 -0.245,-0.416 -0.142,-0.301 -0.414,-0.59 -1.523,-1.618 -2.353,-2.856 -2.515,-5.104 z m -24.15,-29.069 c 3.302,1.877 6.562,3.844 9.888,5.675 3.366,1.853 8.2,3.37 10.785,6.208 1.134,5.743 2.681,11.355 3.477,17.186 1.188,0.824 4.37,2.15 4.946,3.247 -0.643,0.798 -1.275,1.749 -2.017,2.447 -4.134,4.678 -8.312,8.918 -13.544,12.396 -2.082,-1.655 -4.528,-2.919 -6.712,-4.455 -6.366,-4.476 -12.498,-10.666 -15.375,-18.001 1.378,-3.572 4.003,-6.548 5.369,-10.164 1.719,-4.551 1.726,-9.503 3.067,-14.146 z m 20.673,11.883 c 0.099,-0.063 0.2,-0.123 0.298,-0.188 2.022,-1.339 2.878,-3.89 5.778,-3.729 1.309,1.53 7.357,14.474 7.25,16.319 -0.123,2.113 -3.508,6.37 -4.903,8.031 -0.576,-1.097 -3.758,-2.423 -4.946,-3.247 -0.796,-5.831 -2.343,-11.443 -3.477,-17.186 z"
           style="display:inline;fill:#ffdb89;fill-opacity:1" /><path
           id="path274"
           d="m 302.26436,874.11052 c 2.807,-0.657 5.574,-1.229 8.33,-2.104 -1.429,9.305 -2.154,18.663 -4.305,27.866 -1.315,5.627 -3.746,10.913 -5.043,16.518 -2.558,11.048 -3.038,19.082 -8.584,29.606 -1.092,-1.934 -2.977,-4.074 -4.524,-5.692 0.831,-1.529 1.273,-2.834 1.304,-4.583 0.212,-1.167 2.321,-10.807 2.321,-10.808 -0.38,0.359 -0.466,0.628 -0.686,1.101 -1.308,2.816 -3.442,4.661 -5.255,7.119 -3.404,4.614 -6.549,9.336 -10.218,13.757 -0.4,-0.41 -0.987,-1.232 -1.579,-1.247 -0.589,-0.015 -1.096,0.176 -1.501,0.616 -0.722,0.784 -1.634,2.096 -2.116,3.05 -3.726,4.548 -8.586,7.807 -13.063,11.567 -1.269,1.149 -2.742,1.726 -4.441,1.898 -0.644,-0.246 -0.411,-0.028 -0.7,-0.653 2.085,-3.855 5.365,-6.944 8.157,-10.282 3.252,-3.889 6.377,-7.919 9.536,-11.885 5.725,-7.185 9.937,-14.773 14.568,-22.64 3.808,-6.468 8.009,-13.251 10.898,-20.169 q 2.33,-5.56 4.06,-11.335 1.73,-5.775 2.841,-11.7 z m -31.856,75.199 c 0.134,0.484 0.225,0.535 0.056,1.027 -0.262,0.765 -0.57,1.362 -0.304,2.169 l 0.617,0.366 c -2.383,3.143 -8.828,8.978 -12.221,10.879 -0.725,0.406 -1.538,0.567 -2.342,0.736 0.146,-0.428 0.274,-0.809 0.504,-1.2 0.505,-0.855 0.595,-1.423 0.627,-2.41 4.477,-3.76 9.337,-7.019 13.063,-11.567 z m 0,0 c 0.482,-0.954 1.394,-2.266 2.116,-3.05 0.405,-0.44 0.912,-0.631 1.501,-0.616 0.592,0.015 1.179,0.837 1.579,1.247 -1.508,2.069 -3.192,4.013 -4.827,5.981 l -0.617,-0.366 c -0.266,-0.807 0.042,-1.404 0.304,-2.169 0.169,-0.492 0.078,-0.543 -0.056,-1.027 z m -13.063,11.567 c -0.032,0.987 -0.122,1.555 -0.627,2.41 -0.23,0.391 -0.358,0.772 -0.504,1.2 l -5.022,-0.047 c 0.294,-0.811 0.609,-1.555 1.012,-2.318 0.289,0.625 0.056,0.407 0.7,0.653 1.699,-0.172 3.172,-0.749 4.441,-1.898 z m 15.222,3.906 c 1.63,-3.873 4.289,-6.783 6.592,-10.236 3.943,-5.917 7.673,-12.203 10.283,-18.825 -0.031,1.749 -0.473,3.054 -1.304,4.583 1.547,1.618 3.432,3.758 4.524,5.692 -1.912,4.705 -4.143,10.286 -7.446,14.171 -3.606,4.239 -7.53,4.193 -12.649,4.615 z"
           style="display:inline;fill:#ffdb89;fill-opacity:1" /><path
           id="path275"
           style="display:inline;fill:#ffdb89;fill-opacity:1"
           d="m 229.34736,964.67252 c 0.079,-0.362 0.195,-0.499 0.541,-0.69 0.597,-0.328 1.411,-0.464 2.061,-0.731 2.101,-0.865 4.312,-1.922 6.102,-3.333 0.055,-0.5 0.099,-0.256 -0.188,-0.744 -2.368,-4.027 -6.74,1.872 -9.821,1.084 l -0.245,-0.691 -1.269,0.517 -0.008,-0.33 c 2.234,-1.43 5.212,-2.08 7.656,-3.195 8.254,-3.765 13.865,-8.15 20.285,-14.506 0.898,-0.246 1.133,-0.034 1.984,0.289 -5.655,7.113 -17.398,21.04 -26.796,22.307 -0.1,0.014 -0.202,0.015 -0.302,0.023 z m -33.129,-7.946 c 0.523,-1.329 1.08,-2.288 2.166,-3.241 2.743,-2.407 6.398,-3.949 9.485,-5.906 4.289,-2.719 8.437,-5.744 12.591,-8.666 5.505,-3.872 10.764,-8.07 16.264,-11.944 11.158,-7.859 22.252,-15.324 32.486,-24.411 3.797,-3.372 7.485,-7.014 10.759,-10.9 3.916,-4.648 6.315,-9.927 11.659,-13.259 q 0.087,0.621 0.15,1.244 c 0.977,9.989 -9.288,24.653 -14.315,32.928 -3.935,6.476 -7.872,13.122 -12.345,19.238 -2.675,3.657 -5.82,7.006 -8.673,10.533 -5.655,7.113 -17.398,21.04 -26.796,22.307 -0.1,0.014 -0.202,0.015 -0.302,0.023 -2.297,0.741 -10.913,2.693 -12.981,1.821 -0.114,-0.68 -0.084,-0.998 0.294,-1.597 1.636,-2.596 5.219,-3.9 7.517,-5.824 7.558,-6.326 14.963,-12.71 22.223,-19.378 8.793,-8.076 17.843,-16.001 23.023,-27.029 -4.14,4.239 -8.836,7.48 -13.609,10.938 -5.743,4.161 -11.543,8.277 -17.212,12.536 -8.072,6.065 -15.542,12.925 -24.171,18.244 -3.021,-0.625 -7.203,1.669 -10.037,2.835 -0.532,0.219 -1.343,0.684 -1.894,0.773 -0.949,0.153 -1.239,-0.857 -1.927,-1.017 -1.36,-0.315 -2.756,0.741 -4.276,0.189 z m 0.079,0.437 c 1.52,0.552 2.916,-0.504 4.276,-0.189 0.688,0.16 0.978,1.17 1.927,1.017 0.551,-0.089 1.362,-0.554 1.894,-0.773 2.834,-1.166 7.016,-3.46 10.037,-2.835 -4.111,2.816 -9.484,5.765 -12.205,10.059 -0.525,-0.092 -0.981,-0.253 -1.393,-0.598 -1.567,-1.312 -4.365,-4.603 -4.536,-6.681 z" /><path
           id="path276"
           style="display:inline;fill:#ffdb89;fill-opacity:1"
           d="m 260.76645,782.1791 c -5.263,9.325 -8.90528,8.42995 -15.23828,14.87695 3.57,0.514 7.30988,1.32394 9.54688,4.46094 1.619,2.272 1.77284,5.24734 1.21484,7.90234 -0.25,1.193 -0.67109,2.62294 -1.74609,3.33594 -0.551,0.365 -1.11822,-0.21327 -1.69922,-0.19727 -0.984,0.027 -2.61178,0.77304 -3.55078,1.08204 -5.128,1.688 -7.45619,1.07054 -12.49219,0.0605 -1.533,8.775 -0.56155,17.87058 4.68945,25.26758 3.567,5.026 10.83333,10.21803 16.98633,11.20703 6.146,0.988 12.23408,-2.44225 16.95508,-6.03125 6.912,-5.256 9.60864,-13.54357 10.68164,-21.81054 0.487,-3.75802 0.20784,-6.8755 -1.78516,-10.1875 -1.773,1.696 -3.04251,2.4797 -5.60351,2.4707 -2.64,-0.009 -6.71688,-1.11555 -8.54688,-3.06055 -0.327,-0.348 -0.46468,-0.71873 -0.55468,-1.17773 l -0.37305,-0.48047 c -1.354,2.129 -2.43808,3.93525 -3.08008,6.40625 l -0.20508,0.78125 c -0.582,0.07 -1.06086,-0.4212 -1.50586,-0.78321 -1.235,-1.00499 -1.54197,-1.72239 -1.66797,-3.27539 -0.295,-3.629 0.36974,-8.807 2.80274,-11.625 2.577,-2.985 6.90436,-3.74409 10.56836,-4.49609 -1.781,-1.508 -3.40635,-3.16698 -5.15235,-4.70898 -3.51,-3.099 -7.73814,-5.97758 -10.24414,-10.01758 z m 5.47266,35.29492 c 0.083,0.049 0.17105,0.0914 0.24805,0.14844 0.653,0.483 0.96942,1.40759 1.10742,2.18359 0.214,1.207 -0.16186,2.35417 -0.88086,3.32617 -1.084,1.465 -2.91989,2.47266 -4.71289,2.72266 -1.502,0.209 -2.65991,0.30866 -3.87891,-0.65234 -1.243,-1.944 -1.76737,-4.03329 -2.35937,-6.23829 3.684,0.456 7.19956,0.34177 10.47656,-1.49023 z m 4.50977,12.23242 c 0.6393,9.04527 -19.13401,12.18196 -19.9514,0.14168 0.86798,2.07527 18.23279,0.28063 19.9514,-0.14168 z" /><path
           id="path277"
           d="m 317.11836,919.19052 c 0.83,-2.986 1.281,-6.01 1.943,-9.029 0.523,-2.38 1.191,-4.255 3.329,-5.612 -1.07,4.763 -1.673,9.646 -2.455,14.464 -0.11,-0.323 -0.248,-0.63 -0.383,-0.943 l -0.709,-0.139 c -0.76,0.305 -1.166,0.69 -1.725,1.259 z m -10.502,11.203 c 2.357,-11.722 6.45,-23.076 8.322,-34.899 0.823,-5.191 1.977,-23.123 3.347,-26.154 1.491,-3.295 6.8,-6.214 10.055,-7.416 0.122,1.466 0.153,2.89 0.118,4.361 -0.30071,18.0085 -5.72437,35.10944 -8.523,52.728 -0.11,-0.323 -0.248,-0.63 -0.383,-0.943 l -0.709,-0.139 c -0.76,0.305 -1.166,0.69 -1.725,1.259 -1.174,4.154 -2.828,8.521 -3.39,12.795 -0.109,0.05 -0.212,0.117 -0.328,0.149 -1.446,0.398 -4.69,-0.598 -5.864,-1.439 -0.073,-0.052 -0.143,-0.108 -0.215,-0.161 l -0.493,1.227 c -0.241,-0.214 -0.187,-1.025 -0.212,-1.368 z m 0,0 c 0.025,0.343 -0.029,1.154 0.212,1.368 l 0.493,-1.227 c 0.072,0.053 0.142,0.109 0.215,0.161 1.174,0.841 4.418,1.837 5.864,1.439 0.116,-0.032 0.219,-0.099 0.328,-0.149 -0.188,0.953 -0.356,1.911 -0.63,2.844 -0.723,2.152 0.374,4.151 0.337,6.355 -1.682,7.045 -6.998,18.284 -12.653,22.72 -2.466,1.935 -4.265,2.331 -7.262,1.967 1.57,-5.619 4.954,-10.939 7.24,-16.32 2.624,-6.174 4.183,-12.683 5.856,-19.158 z m 10.502,-11.203 c 0.559,-0.569 0.965,-0.954 1.725,-1.259 l 0.709,0.139 c 0.135,0.313 0.273,0.62 0.383,0.943 -0.749,3.204 -1.616,6.327 -2.606,9.465 l -0.328,-0.654 -0.481,0.017 c -1.622,2.086 -1.671,5.18 -2.869,7.512 l -0.368,-0.015 -0.185,-0.509 c 0.274,-0.933 0.442,-1.891 0.63,-2.844 0.562,-4.274 2.216,-8.641 3.39,-12.795 z m -4.02,15.639 0.185,0.509 0.368,0.015 c 1.198,-2.332 1.247,-5.426 2.869,-7.512 l 0.481,-0.017 0.328,0.654 c -1.208,4.244 -2.351,8.568 -3.894,12.706 0.037,-2.204 -1.06,-4.203 -0.337,-6.355 z"
           style="display:inline;fill:#ffdb89;fill-opacity:1" /><path
           fill="url(#gradient_6)"
           d="m 265.92713,732.42561 c 16.35279,-5.0563 47.39032,-11.80444 69.1368,-0.36055 -14.43937,-17.37118 -68.84861,-6.08937 -69.1368,0.36055 z"
           id="path278"
           style="display:inline;fill:#ffdb89;fill-opacity:1" /><path
           fill="#fcfcf8"
           d="m 265.86857,741.94706 c 25.80261,-10.92315 57.05983,-2.64817 73.649,-0.007 -14.73912,-12.25355 -72.64687,-10.93107 -73.649,0.007 z"
           id="path279"
           style="display:inline;fill:#ffdb89;fill-opacity:1" /><path
           id="path280"
           style="display:inline;fill:#ffdb89;fill-opacity:1"
           d="m 327.51788,648.25536 c 0.55555,0.005 1.08273,0.0192 1.57813,0.0449 -1.60536,23.80766 -3.32694,45.98161 1.05775,73.57465 -7.4363,-7.50931 -44.61637,-6.78701 -64.2726,2.75152 -0.052,-14.03704 0.1902,-28.09731 0.1211,-42.1582 0.005,-3.681 -0.25403,-7.52702 0.29297,-11.16602 1.161,-0.747 2.30782,-1.54234 3.54882,-2.15234 -4.83203,-10.40746 38.33552,-21.05666 57.67383,-20.89454 z m -53.42578,29.49218 c 23.51825,-10.44488 46.31855,-8.21834 49.00391,-9.21875 -0.47482,-3.01755 -33.56307,-5.20892 -49.00391,9.21875 z m 0.77344,10.4941 c 22.17329,-10.59628 38.20241,-7.50672 46.98047,-8.80855 0.26069,-3.8219 -35.62558,-4.02301 -46.98047,8.80855 z m -0.125,10.53516 c 20.55991,-9.05803 32.52789,-7.04744 46.97069,-9.01758 -1.7289,-1.80841 -31.63459,-4.60001 -46.97069,9.01758 z m 1.59765,7.95902 c 19.61369,-7.10401 28.24006,-5.95938 44.63165,-5.39286 -3.52239,-3.3236 -28.92638,-7.0216 -44.63165,5.39286 z m -1.46115,7.74628 c 26.87054,-9.87799 42.94701,-4.10304 47.64865,-4.85957 -1.74192,-2.31446 -28.26751,-8.40685 -47.64865,4.85957 z" /><path
           id="path281"
           d="m 278.54891,770.67562 c -1.635,0.583 -2.42,0.957 -4.117,0.214 -0.669,0.197 -1.072,0.292 -1.586,0.793 q 2.048,1.846 4.324,3.402 c 5.881,3.939 20.126,9.925 27.13,8.323 0.771,-0.176 1.617,-0.542 1.968,-1.31 0.366,-0.797 0.145,-2.273 -0.135,-3.065 -0.258,-0.727 -0.705,-1.119 -1.443,-1.334 -2.853,-0.834 -6.338,-0.63 -9.314,-1.097 -5.951,-0.933 -11.38,-3.489 -16.827,-5.926 z m -4.117,0.214 c -0.532,-0.746 -1.033,-1.434 -1.817,-1.935 -0.788,-0.504 -1.345,-0.562 -2.241,-0.362 l -0.369,0.668 c 0.927,0.826 1.836,1.692 2.841,2.422 0.514,-0.501 0.917,-0.596 1.586,-0.793 z m 4.117,-0.214 c -3.347,-1.842 -6.867,-2.901 -10.666,-3.223 l 2.122,1.808 c 0.927,0.826 1.836,1.692 2.841,2.422 0.514,-0.501 0.917,-0.596 1.586,-0.793 1.697,0.743 2.482,0.369 4.117,-0.214 z"
           style="fill:#ffdb89;fill-opacity:1" /><path
           fill="#fcfcf8"
           d="m 278.54891,756.17162 c -2.625,-0.231 -4.931,-0.166 -7.471,0.61 -1.79,0.547 -3.802,1.45 -4.66,3.232 -0.554,1.15 -0.437,2.312 -0.003,3.469 1.666,1.22 6.222,-0.374 8.423,-0.162 4.761,0.459 9.229,3.502 13.646,5.191 2.668,0.991 7.291,3.007 10.067,1.81 0.282,-0.328 0.475,-0.432 0.522,-0.889 0.102,-0.983 -0.452,-1.856 -1.023,-2.613 -4.227,-5.6 -12.625,-9.835 -19.501,-10.648 z"
           id="path282"
           style="fill:#ffdb89;fill-opacity:1" /><path
           fill="#fcfcf8"
           d="m 266.84091,768.35562 c -0.128,0.137 -0.196,0.195 -0.286,0.387 -0.873,1.883 0.191,6.2 0.965,7.927 3.745,8.357 16.34,16.31 24.56,19.497 4.49,1.741 21.711,7.289 25.771,7.208 0.689,-0.013 1.365,-0.338 1.985,-0.612 0.778,-0.632 1.444,-1.431 2.127,-2.165 -0.105,-0.168 -0.209,-0.337 -0.32,-0.5 -4.846,-7.115 -9.881,-7.741 -17.585,-9.153 -14.189,-2.6 -24.449,-7.545 -33.811,-18.705 -1.111,-1.325 -2.428,-2.464 -3.406,-3.884 z"
           id="path283"
           style="fill:#ffdb89;fill-opacity:1" /><path
           style="display:inline;fill:#ffdb89;fill-opacity:1"
           d="m 376.13478,755.58104 c -2.39932,0.20141 -3.78597,1.13314 -5.92997,1.83213 -0.924,5.21 -1.09503,14.03389 -1.72603,19.29889 -0.86,7.175 -1.45073,14.35274 -2.22973,21.53374 -0.814,7.505 -1.82802,14.97822 -2.27702,22.52022 -0.221,3.71 -0.001,7.40685 -0.14189,11.11485 -2.308,2.258 -5.35234,3.98682 -7.85134,6.08782 -5.307,4.461 -15.47934,14.45369 -19.37834,19.97969 -0.596,3.68 -0.19594,27.60218 -0.19594,30.93913 0,0.77227 1.92561,-1.36526 4.37161,-3.04729 8.09593,-5.56728 18.51677,-18.03913 32.04048,-38.83101 2.551,-3.924 5.4592,-7.68651 7.7162,-11.79051 0.39901,-0.726 1.38685,-4.67181 1.97972,-7.13512 3.00124,-13.36545 2.07221,-47.10614 1.12162,-53.58098 1.12402,3.03733 2.94864,19.21958 4.04729,22.27698 0.585,7.691 0.64979,37.94276 -1.71621,44.33775 -1.853,5.011 -5.30255,9.52254 -8.06755,14.06754 -3.671,6.033 -6.73752,11.97018 -11.29052,17.46618 -4.108,4.96 -8.55249,9.78065 -13.01349,14.42565 -2.37632,2.3892 -15.63038,16.3604 -17.18915,19.35807 -0.761,2.718 0,10.6689 0,10.6689 0,0 19.39355,-24.61038 21.59455,-26.93238 3.743,-3.949 6.97311,-8.18714 10.38511,-12.41214 3.489,-4.321 7.1216,-8.35203 10.1216,-13.05403 2.482,-3.889 4.45002,-8.12584 6.77702,-12.11484 2.12,-3.635 4.88991,-7.50659 5.91891,-11.62159 1.667,-6.668 1.21702,-16.14799 1.02702,-23.02699 -0.526,-19.13 -3.9789,-37.55921 -7.4189,-56.32421 -0.41167,-2.24684 0.002,-4.37454 -0.38492,-6.65177 0.10814,-1.81774 -7.55223,0.48989 -8.29013,0.61532 z"
           id="path284" /><path
           style="display:inline;fill:#ffdb89;fill-opacity:1"
           d="m 350.74138,671.19653 c -1.19344,0.10659 -2.27894,0.5793 -3.44594,1.0473 -0.33211,6.97255 -0.23371,16.23726 -0.10567,24.40462 0.22501,-0.14471 3.34394,-6.23251 4.72896,-5.22677 -0.19382,-10.2107 0.5588,-16.99665 0.0591,-20.19812 -0.429,-0.06 -0.83867,-0.0625 -1.23648,-0.027 z"
           id="path286" /><path
           style="display:inline;fill:#ffdb89;fill-opacity:1"
           d="m 136.31032,754.98238 c -0.27078,1.38988 -0.54932,2.74896 -0.84459,4.1554 -0.934,4.449 -2.10394,8.84954 -2.94594,13.31754 -3.375,17.915 -5.98239,40.43718 -4.90539,58.54718 0.175,2.948 0.5158,6.05482 1.5608,8.83782 1.198,3.19 3.33256,6.20987 5.06756,9.14187 10.827,18.3 24.64578,35.67915 40.61478,49.74315 1.773,1.561 12.85809,9.68917 12.85809,9.68917 v -5.28378 c -21.03257,-21.60852 -55.97871,-64.8725 -52.4526,-74.36471 2.51555,4.34854 26.93344,45.39157 52.4526,61.5269 v -3.6081 c -15.53296,-8.26247 -19.73469,-17.74277 -19.97969,-18.06077 0.17988,-1.26262 5.88832,6.94954 19.88509,15.02699 0,-3.71356 0.24549,-20.11798 -0.76351,-24.02698 -0.293,-1.139 -1.15618,-2.08942 -1.93918,-2.93242 -2.784,-2.998 -6.20026,-5.65585 -9.27026,-8.36485 -4.369,-3.855 -8.68324,-7.90222 -13.27024,-11.49322 -1.802,-1.411 -3.62385,-2.65002 -5.61485,-3.77702 -0.075,-3.652 0.30886,-7.29368 0.11486,-10.95268 -0.452,-8.545 -1.73586,-17.1326 -2.61486,-25.6486 -1.13867,-12.074 -2.18988,-24.15317 -3.14188,-36.24317 -5.0002,-1.76566 -14.88897,-5.55547 -14.81085,-5.22997 z"
           id="path287" /><path
           style="display:inline;fill:#ffdb89;fill-opacity:1"
           d="m 173.4116,672.30687 c -2.037,0.408 -4.47528,-0.0699 -6.54728,0.13514 0.0939,7.0236 0.69023,22.12742 1.30405,29.54356 1.89909,-0.4747 1.5316,-3.19903 4.89362,-4.72373 0.31868,-6.5047 0.38004,-17.50394 0.34961,-24.95497 z"
           id="path289" /><path
           id="path290"
           d="m 292.12136,836.73152 c 2.073,4.344 3.674,9.356 6.839,13.065 4.15,4.863 8.622,5.38 11.956,11.781 -3.35,1.646 -6.574,2.127 -10.272,2.068 -1.413,-1.391 -2.577,-2.714 -3.361,-4.576 l -0.078,-0.62 -0.324,0.053 c -0.702,1.808 -0.005,3.09 -0.434,4.801 l -0.421,0.156 c -1.479,-0.83 -1.756,-1.405 -3.552,-1.274 -0.346,-0.818 -0.686,-1.643 -0.975,-2.483 -2.848,-8.304 -3.316,-15.126 0.622,-22.971 z m 0.353,25.454 c 1.796,-0.131 2.073,0.444 3.552,1.274 l 0.421,-0.156 c 0.429,-1.711 -0.268,-2.993 0.434,-4.801 l 0.324,-0.053 0.078,0.62 c -0.186,1.803 0.022,3.611 0.043,5.418 -2.194,-0.391 -3.418,-0.472 -4.852,-2.302 z"
           style="display:inline;fill:#ffdb89;fill-opacity:1" /><path
           fill="#f4f2e4"
           d="m 258.69136,989.47952 c 2.85207,-0.0871 5.70664,-0.0348 8.557,0.084 -0.34306,11.56128 0.25005,23.12168 0.69988,34.67078 0.0481,3.2434 0.096,6.5215 -0.50888,9.7222 -0.98647,0.7355 -2.30863,0.3402 -3.45986,0.4612 -2.70071,0.036 -5.40143,0.072 -8.10214,0.1078 -0.87507,-10.9065 0.39116,-21.8237 0.34545,-32.7354 -0.0137,-3.85455 -0.36156,-7.75413 0.28389,-11.57511 0.23805,-0.84286 1.49525,-0.63174 2.18466,-0.73547 z"
           id="path291"
           style="display:inline;fill:#ffdb89;fill-opacity:1" /><path
           fill="#f4f2e4"
           d="m 240.28436,989.51952 c 2.71973,-0.25797 5.45706,-0.23603 8.184,-0.126 0.45334,7.85661 -0.01,15.72588 -0.009,23.58818 -0.0969,7.2109 -0.2807,14.4306 -1.00706,21.6098 -3.75388,-0.2124 -7.51298,-0.3572 -11.255,-0.74 -0.63044,-5.6217 -0.26627,-11.2903 -0.22613,-16.9315 0.23173,-9.0338 0.83375,-18.05734 0.84913,-27.09648 1.15325,-0.11666 2.30806,-0.218 3.464,-0.304 z"
           id="path292"
           style="display:inline;fill:#ffdb89;fill-opacity:1" /><path
           fill="#fcfcf8"
           d="m 225.27736,816.50252 c 0.214,1.577 -0.314,3.527 -0.654,5.067 -1.486,6.736 -5.53,13.396 -11.403,17.152 -6.627,4.238 -16.044,3.897 -23.428,2.271 l -0.503,-0.356 c -0.806,-1.499 -0.471,-3.909 -0.391,-5.567 6.173,-0.335 12.415,0.268 18.369,-1.796 7.66,-2.656 14.489,-9.605 18.01,-16.771 z"
           id="path293"
           style="display:inline;fill:#ffdb89;fill-opacity:1" /><path
           fill="#dbd4c1"
           d="m 310.59536,993.47352 c 1.99847,0.58746 3.87942,1.60684 5.26762,3.18691 3.23132,3.53217 5.31579,8.03237 6.36293,12.67687 0.71862,2.7194 0.63346,13.9791 -1.27132,15.7922 -1.84617,1.4718 -4.29764,1.7601 -6.54313,2.2071 -0.88746,-0.1184 -2.77828,1.1365 -2.6961,-0.2764 -0.89521,-7.4963 0.15987,-15.0509 -0.40704,-22.5642 -0.20917,-3.676 -0.55088,-7.34365 -0.71296,-11.02248 z"
           id="path294"
           style="display:inline;fill:#ffdb89;fill-opacity:1" /><path
           fill="#fcfcf8"
           d="m 295.22736,820.37152 c 2.852,2.085 5.286,4.764 7.963,7.068 4.228,3.638 11.754,8.322 17.304,9.236 4.164,0.686 8.847,-0.15 12.879,1.135 l 0.133,0.534 c -1.336,3.069 -7.447,5.463 -10.405,6.869 -2.869,0.963 -5.635,1.009 -8.584,0.36 -2.268,-0.596 -4.632,-1.816 -6.594,-3.09 -8.154,-5.298 -10.835,-13.05 -12.696,-22.112 z"
           id="path295"
           style="display:inline;fill:#ffdb89;fill-opacity:1" /><path
           fill="#fcfcf8"
           d="m 211.09636,992.52352 c 1.32511,9.2e-4 0.43685,1.75901 0.55928,2.58473 -0.76053,9.49275 -0.935,19.01815 -1.27408,28.53135 -0.0774,1.5258 -0.18722,3.0504 -0.3562,4.5689 -2.82252,-0.6773 -5.68864,-1.2226 -8.45487,-2.1035 -1.5694,-0.2586 -2.3577,-1.7123 -2.39898,-3.1947 -0.49875,-4.5816 0.19262,-9.1968 0.95477,-13.7109 0.74778,-3.7263 1.48635,-7.5349 3.18808,-10.96388 1.41515,-2.72978 4.07474,-4.61732 6.98873,-5.47205 0.26294,-0.0848 0.52752,-0.16446 0.79327,-0.23995 z"
           id="path296"
           style="display:inline;fill:#ffdb89;fill-opacity:1" /><path
           fill="url(#gradient_14)"
           d="m 293.79236,991.00352 c 2.7532,-0.0269 5.49057,0.32207 8.216,0.672 0.18563,12.00208 0.7434,24.00088 0.63366,36.00628 0.15356,1.4701 -0.15488,3.1614 -1.99344,3.0726 -2.24531,0.5396 -4.51612,0.9692 -6.79822,1.3201 -0.40605,-13.6879 0.0931,-27.3811 -0.058,-41.07098 z"
           id="path297"
           style="display:inline;fill:#ffdb89;fill-opacity:1" /><path
           fill="#fcfcf8"
           d="m 229.14936,805.12752 0.199,0.014 0.255,0.465 -0.305,0.418 0.252,0.529 c -0.263,0.244 -0.488,0.465 -0.661,0.786 -0.248,0.459 -0.483,0.865 -0.802,1.283 -1.814,2.379 -4.297,4.199 -6.599,6.077 -6.012,4.906 -12.192,10.291 -20.208,11.274 -4.58,0.561 -8.017,-0.468 -11.65,-3.32 -1.905,-1.823 -3.19,-3.621 -4.462,-5.929 5.056,-0.671 10.21,1.003 15.158,-0.236 10.499,-2.628 17.946,-9.666 28.823,-11.361 z"
           id="path298"
           style="display:inline;fill:#ffdb89;fill-opacity:1" /><path
           fill="#fcfcf8"
           d="m 292.30636,803.20752 c 9.971,1.763 17.227,10.08 26.844,12.659 5.783,1.551 11.844,0.757 17.754,1.219 -1.002,2.173 -2.103,3.934 -3.714,5.709 -1.529,1.282 -3.128,2.188 -5.034,2.758 -5.154,1.543 -11.214,0.714 -15.904,-1.843 -7.557,-4.122 -17.426,-12.101 -19.946,-20.502 z"
           id="path299"
           style="display:inline;fill:#ffdb89;fill-opacity:1" /><path
           fill="#f4f2e4"
           d="m 224.59336,990.01052 c 1.389,0.0503 2.778,0.10067 4.167,0.151 0.004,5.86486 -0.39894,11.72198 -0.35515,17.58798 -0.0881,8.0804 -0.24305,16.1602 -0.46485,24.238 -3.30292,-0.1183 -6.61336,-0.1065 -9.902,-0.472 -1.40265,-5.7074 -0.32115,-11.5973 -0.30952,-17.3853 0.23632,-7.8063 0.57989,-15.61227 1.23652,-23.39568 1.85318,-0.39003 3.73787,-0.61831 5.628,-0.724 z"
           id="path300"
           style="display:inline;fill:#ffdb89;fill-opacity:1" /><path
           fill="#f4f2e4"
           d="m 216.25236,873.79752 c 2.908,0.571 5.552,1.322 8.092,2.865 2.27,8.017 3.829,16.373 6.807,24.162 1.866,4.885 4.321,9.316 6.951,13.812 -1.108,1.139 -2.293,2.214 -3.447,3.308 -1.594,1.472 -3.336,2.618 -5.226,3.671 -2.374,-3.745 -4.305,-7.595 -5.849,-11.756 -2.849,-7.675 -7.625,-27.913 -7.328,-36.062 z"
           id="path301"
           style="display:inline;fill:#ffdb89;fill-opacity:1" /><path
           fill="url(#gradient_18)"
           d="m 275.07636,989.60452 c 3.12157,-0.13198 6.24538,0.021 9.363,0.178 1.21146,12.94198 1.24552,25.96018 0.9875,38.94508 -0.0731,1.7612 -0.20787,3.5218 -0.4685,5.2659 -2.95816,0.2291 -5.92624,0.264 -8.891,0.339 -0.89783,-7.5116 -0.80882,-15.0921 -1.05421,-22.6421 -0.1474,-7.361 -0.16534,-14.72629 0.0632,-22.08588 z"
           id="path302"
           style="display:inline;fill:#ffdb89;fill-opacity:1" /><path
           id="path303"
           d="m 243.52136,770.86852 c 1.635,0.583 2.42,0.957 4.117,0.214 0.669,0.197 1.072,0.292 1.586,0.793 q -2.048,1.846 -4.324,3.402 c -5.881,3.939 -20.126,9.925 -27.13,8.323 -0.771,-0.176 -1.617,-0.542 -1.968,-1.31 -0.366,-0.797 -0.145,-2.273 0.135,-3.065 0.258,-0.727 0.705,-1.119 1.443,-1.334 2.853,-0.834 6.338,-0.63 9.314,-1.097 5.951,-0.933 11.38,-3.489 16.827,-5.926 z m 4.117,0.214 c 0.532,-0.746 1.033,-1.434 1.817,-1.935 0.788,-0.504 1.345,-0.562 2.241,-0.362 l 0.369,0.668 c -0.927,0.826 -1.836,1.692 -2.841,2.422 -0.514,-0.501 -0.917,-0.596 -1.586,-0.793 z m -4.117,-0.214 c 3.347,-1.842 6.867,-2.901 10.666,-3.223 l -2.122,1.808 c -0.927,0.826 -1.836,1.692 -2.841,2.422 -0.514,-0.501 -0.917,-0.596 -1.586,-0.793 -1.697,0.743 -2.482,0.369 -4.117,-0.214 z"
           style="fill:#ffdb89;fill-opacity:1" /><path
           fill="#fcfcf8"
           d="m 243.52136,756.36452 c 2.625,-0.231 4.931,-0.166 7.471,0.61 1.79,0.547 3.802,1.45 4.66,3.232 0.554,1.15 0.437,2.312 0.003,3.469 -1.666,1.22 -6.222,-0.374 -8.423,-0.162 -4.761,0.459 -9.229,3.502 -13.646,5.191 -2.668,0.991 -7.291,3.007 -10.067,1.81 -0.282,-0.328 -0.475,-0.432 -0.522,-0.889 -0.102,-0.983 0.452,-1.856 1.023,-2.613 4.227,-5.6 12.625,-9.835 19.501,-10.648 z"
           id="path304"
           style="fill:#ffdb89;fill-opacity:1" /><path
           fill="#fcfcf8"
           d="m 255.22936,768.54852 c 0.128,0.137 0.196,0.195 0.286,0.387 0.873,1.883 -0.191,6.2 -0.965,7.927 -3.745,8.357 -16.34,16.31 -24.56,19.497 -4.49,1.741 -21.711,7.289 -25.771,7.208 -0.689,-0.013 -1.365,-0.338 -1.985,-0.612 -0.778,-0.632 -1.444,-1.431 -2.127,-2.165 0.105,-0.168 0.209,-0.337 0.32,-0.5 4.846,-7.115 9.881,-7.741 17.585,-9.153 14.189,-2.6 24.449,-7.545 33.811,-18.705 1.111,-1.325 2.428,-2.464 3.406,-3.884 z"
           id="path305"
           style="fill:#ffdb89;fill-opacity:1" /><path
           fill="#fcfcf8"
           d="m 242.89536,803.25652 c 3.493,0.179 5.86,0.971 8.895,2.691 -1.449,0.331 -2.968,0.491 -4.44,0.708 -2.667,0.473 -5.281,0.985 -7.999,1.007 0.922,-2.013 1.628,-3.211 3.544,-4.406 z"
           id="path306"
           style="display:inline;fill:#ffdb89;fill-opacity:1" /><path
           fill="#fcfcf8"
           d="m 269.25036,809.89752 c 1.297,-2.582 3.061,-5.239 5.938,-6.212 1.527,-0.515 3.113,-0.381 4.549,0.347 1.263,0.641 2.164,1.764 3.005,2.872 -3.486,-0.06 -9.41,-0.801 -12.069,1.926 -0.431,0.442 -0.743,1.016 -1.049,1.547 z"
           id="path307"
           style="display:inline;fill:#ffdb89;fill-opacity:1" /><path
           id="path308"
           d="m 316.21336,957.78852 c 2.663,-5.486 3.812,-11.9 7.338,-16.9 1.992,5.398 1.114,9.806 -1.273,14.926 -1.265,2.712 -2.927,5.71 -5.041,7.845 0.034,-1.046 0.281,-1.409 0.906,-2.23 0.433,-0.568 -1.82,-2.501 -1.93,-3.641 z m 0,0 c 0.11,1.14 2.363,3.073 1.93,3.641 -0.625,0.821 -0.872,1.184 -0.906,2.23 -0.521,0.905 -1.503,1.687 -2.329,2.295 -0.983,0.724 -2.201,1.642 -3.468,1.433 l -0.229,-0.428 c 0.288,-2.835 3.629,-6.562 5.002,-9.171 z"
           style="display:inline;fill:#ffdb89;fill-opacity:1" /><path
           id="path309"
           d="m 240.73436,895.99552 c 3.912,3.662 8.031,7.137 10.294,12.109 -1.779,1.214 -3.635,2.201 -5.65,2.973 -3.59,-4.18 -6.354,-8.444 -8.14,-13.678 0.167,-0.256 0.391,-0.661 0.625,-0.878 0.37,-0.342 0.638,-0.37 1.126,-0.38 0.599,-0.013 1.15,-0.063 1.745,-0.146 z m -6.035,-7.352 c 1.825,2.721 3.737,5.022 6.035,7.352 -0.595,0.083 -1.146,0.133 -1.745,0.146 -0.488,0.01 -0.756,0.038 -1.126,0.38 -0.234,0.217 -0.458,0.622 -0.625,0.878 -0.96,-2.847 -1.938,-5.812 -2.539,-8.756 z"
           style="display:inline;fill:#ffdb89;fill-opacity:1" /><path
           fill="url(#gradient_4)"
           d="m 224.15836,830.03852 c 0.064,0.039 0.134,0.07 0.193,0.117 0.808,0.644 1.007,2.578 1.219,3.552 -1.719,5.33 -7.426,12.117 -12.09,15.252 -3.617,2.429 -8.237,4.165 -12.622,3.29 -0.314,-0.208 -0.673,-0.42 -0.953,-0.676 -0.538,-0.492 -0.692,-0.801 -0.759,-1.511 1.009,-1.581 4.763,-1.939 6.501,-2.552 8.535,-3.011 14.659,-9.408 18.511,-17.472 z"
           id="path310"
           style="display:inline;fill:#ffdb89;fill-opacity:1" /><path
           fill="url(#gradient_6)"
           d="m 255.7908,732.11107 c -16.35279,-5.0563 -47.39032,-11.80444 -69.1368,-0.36055 14.43937,-17.37118 68.84861,-6.08937 69.1368,0.36055 z"
           id="path311"
           style="fill:#ffdb89;fill-opacity:1" /><path
           fill="#fcfcf8"
           d="m 255.84936,741.63252 c -25.80261,-10.92315 -57.05983,-2.64817 -73.649,-0.007 14.73912,-12.25355 72.64687,-10.93107 73.649,0.007 z"
           id="path312"
           style="fill:#ffdb89;fill-opacity:1" /><path
           id="path313"
           style="fill:#ffdb89;fill-opacity:1"
           d="m 194.20005,647.94082 c -0.55555,0.005 -1.08273,0.0192 -1.57813,0.0449 1.60536,23.80766 3.32694,45.98161 -1.05775,73.57465 7.4363,-7.50931 44.61637,-6.78701 64.2726,2.75152 0.052,-14.03704 -0.1902,-28.09731 -0.1211,-42.1582 -0.005,-3.681 0.25403,-7.52702 -0.29297,-11.16602 -1.161,-0.747 -2.30782,-1.54234 -3.54882,-2.15234 4.83203,-10.40746 -38.33552,-21.05666 -57.67383,-20.89454 z m 53.42578,29.49218 c -23.51825,-10.44488 -46.31855,-8.21834 -49.00391,-9.21875 0.47482,-3.01755 33.56307,-5.20892 49.00391,9.21875 z m -0.77344,10.4941 c -22.17329,-10.59628 -38.20241,-7.50672 -46.98047,-8.80855 -0.26069,-3.8219 35.62558,-4.02301 46.98047,8.80855 z m 0.125,10.53516 c -20.55991,-9.05803 -32.52789,-7.04744 -46.97069,-9.01758 1.7289,-1.80841 31.63459,-4.60001 46.97069,9.01758 z m -1.59765,7.95902 c -19.61369,-7.10401 -28.24006,-5.95938 -44.63165,-5.39286 3.52239,-3.3236 28.92638,-7.0216 44.63165,5.39286 z m 1.46115,7.74628 c -26.87054,-9.87799 -42.94701,-4.10304 -47.64865,-4.85957 1.74192,-2.31446 28.26751,-8.40685 47.64865,4.85957 z" /><path
           fill="#fcfcf8"
           d="m 178.18129,657.66684 c 1.75068,-0.0223 3.26017,-0.13674 5.12826,0.48086 1.77207,24.87884 2.63936,35.81286 2.74037,42.07323 -4.38386,2.01153 0.13176,-10.6965 -6.91232,-9.55905 -0.16449,-6.87134 -0.93277,-29.82158 -0.95631,-32.99504 z"
           id="path314"
           style="display:inline;fill:#ffdb89;fill-opacity:1" /><path
           fill="url(#gradient_8)"
           d="m 334.28829,660.2827 c 1.41976,-0.0214 4.05113,-0.34645 5.34751,0.98636 0.982,1.012 0.93958,2.09696 1.08758,3.44396 -0.0646,8.94166 0.99368,32.74528 0.84286,38.81826 -6.54923,-3.19018 -0.0822,17.36415 -5.88814,18.00423 -0.23829,-6.62828 -1.38153,-59.5198 -1.38981,-61.25281 z"
           id="path315"
           style="display:inline;fill:#ffdb89;fill-opacity:1" /><path
           fill="#9e9d97"
           d="m 292.47436,862.18552 c 1.796,-0.131 2.073,0.444 3.552,1.274 l 0.421,-0.156 c 0.429,-1.711 -0.268,-2.993 0.434,-4.801 l 0.324,-0.053 0.078,0.62 c -0.186,1.803 0.022,3.611 0.043,5.418 -2.194,-0.391 -3.418,-0.472 -4.852,-2.302 z"
           id="path318"
           style="display:inline;fill:#ffdb89;fill-opacity:1" /><path
           fill="url(#gradient_9)"
           d="m 230.67836,840.03852 c 2.708,2.47 3.817,5.029 4.055,8.661 0.278,4.242 -0.713,12.188 -3.632,15.368 -1.08,1.176 -2.294,1.802 -3.883,1.866 -0.308,-0.134 -0.72,-0.22 -0.913,-0.509 -1.576,-2.35 2.654,-10.176 3.361,-12.974 -0.991,0.739 -1.709,1.854 -2.46,2.828 -2.37,2.611 -5.135,6.292 -8.341,7.891 -0.872,0.436 -1.951,0.722 -2.881,0.277 -0.723,-0.347 -1.406,-1.264 -1.551,-2.053 -0.094,-0.51 0.097,-1.159 0.353,-1.6 1.977,-3.406 7.983,-7.975 10.777,-11.549 1.998,-2.557 3.579,-5.357 5.115,-8.206 z"
           id="path321"
           style="display:inline;fill:#ffdb89;fill-opacity:1" /><path
           fill="#fcfcf8"
           d="m 215.47036,861.22452 c 0.487,-0.018 0.781,-0.003 1.233,0.185 l 0.39,0.982 c -0.175,0.007 -0.398,0.026 -0.566,-0.025 -0.672,-0.205 -0.761,-0.567 -1.057,-1.142 z"
           id="path322"
           style="display:inline;fill:#ffdb89;fill-opacity:1" /><path
           fill="url(#gradient_10)"
           d="m 292.12136,836.73152 c 2.073,4.344 3.674,9.356 6.839,13.065 4.15,4.863 8.622,5.38 11.956,11.781 -3.35,1.646 -6.574,2.127 -10.272,2.068 -1.413,-1.391 -2.577,-2.714 -3.361,-4.576 l -0.078,-0.62 -0.324,0.053 c -0.702,1.808 -0.005,3.09 -0.434,4.801 l -0.421,0.156 c -1.479,-0.83 -1.756,-1.405 -3.552,-1.274 -0.346,-0.818 -0.686,-1.643 -0.975,-2.483 -2.848,-8.304 -3.316,-15.126 0.622,-22.971 z"
           id="path323"
           style="display:inline;fill:#ffdb89;fill-opacity:1" /><path
           id="path324"
           d="m 275.73236,773.19252 c 4.651,-0.141 8.634,1.353 13.173,2.002 4.004,0.573 8.128,0.554 12.08,1.378 1.029,0.497 2.101,0.96 3.089,1.534 -1.733,-0.12 -3.501,-0.148 -5.134,0.52 l -0.398,0.488 c 0.126,0.902 0.505,1.513 0.965,2.29 l -0.352,0.223 c -1.073,-0.408 -1.219,-0.516 -2.321,-0.254 -5.642,-2.055 -11.366,-3.813 -17.1,-5.59 -1.418,-0.788 -2.759,-1.536 -4.002,-2.591 z m 21.102,8.181 c 1.102,-0.262 1.248,-0.154 2.321,0.254 l 0.352,-0.223 c -0.46,-0.777 -0.839,-1.388 -0.965,-2.29 l 0.398,-0.488 c 1.633,-0.668 3.401,-0.64 5.134,-0.52 1.188,0.823 1.931,1.843 2.229,3.289 0.146,0.708 0.015,1.032 -0.331,1.639 -1.129,0.658 -2.536,0.351 -3.738,0.033 -1.817,-0.481 -3.613,-1.112 -5.4,-1.694 z"
           style="fill:#ffdb89;fill-opacity:1" /><path
           fill="#fcfcf8"
           d="m 320.28736,805.24052 c -1.926,0.024 -3.715,-0.177 -5.56,-0.716 -3.827,-1.118 -7.431,-3.099 -11.092,-4.672 -4.108,-1.766 -8.333,-3.218 -12.419,-5.056 -8.582,-3.861 -22.879,-11.843 -26.191,-21.181 -1.175,-3.313 0.069,-9.394 1.632,-12.514 1.042,-2.079 2.742,-3.611 4.99,-4.272 5.313,-1.563 12.327,0.806 16.977,3.349 5.076,2.777 9.374,5.876 11.035,11.628 -7.854,0.141 -11.365,-0.189 -18.125,-4.388 -2.322,-1.442 -4.513,-2.663 -7.222,-3.187 -3.255,-0.629 -5.843,-0.18 -8.569,1.631 l 2.231,2.16 c 2.153,2.281 5.712,6.888 8.096,8.461 5.767,5.677 13.186,9.612 20.844,12.132 2.956,0.973 6.029,1.635 8.939,2.74 5.418,2.056 13.447,6.657 17.871,10.379 -0.993,1.448 -2.039,2.468 -3.437,3.506 z"
           id="path325"
           style="fill:#ffdb89;fill-opacity:1" /><path
           style="display:inline;opacity:1;fill:#ffdb89;fill-opacity:1;stroke-width:0.745659"
           d="m 136.31026,754.98213 0.9915,-6.79843 c 0,0 0.78681,-4.18777 1.83909,-6.80976 1.05228,-2.62201 1.27867,-2.92256 1.27867,-2.92256 l 2.60981,-3.80899 c 0,0 3.86944,-4.62709 6.88855,-7.88127 3.0191,-3.25416 5.91076,-6.2755 5.91076,-6.2755 l 4.13611,-4.22684 c 9.28483,-10.28725 11.67413,-13.02167 15.29569,-16.3438 l 3.27539,-4.18743 c 0,0 0.50698,-0.52629 1.02021,-0.53485 1.27919,0.58066 1.37108,1.39387 1.24222,2.51832 -0.21225,1.32766 -0.27552,2.06409 -0.49581,2.87798 -0.64476,2.38205 -2.37134,4.40162 -11.91788,14.21324 0,0 -2.34992,1.42501 -2.98463,2.08686 -0.54267,0.93765 0.37842,0.97897 0.37842,0.97897 0,0 -0.36254,0.32534 1.81352,-0.4316 4.22214,-2.1587 5.45514,-3.13804 8.62046,-5.10182 4.29559,-2.80586 6.17783,-4.93667 6.17783,-4.93667 0,0 2.93954,-3.26486 4.16265,-2.35731 3.24957,3.64756 -4.78001,9.956 -9.25484,13.01413 -11.22676,7.26169 -7.32768,4.42911 -11.22824,8.68625 6.29134,0.71828 11.174,-1.00989 13.69409,-2.57874 2.58438,-0.68271 3.14195,-1.2452 4.2462,-1.43623 1.14369,-0.21731 1.37966,0.21597 1.68351,0.38912 0.30394,0.17319 0.2957,1.44874 0.33572,1.78559 -0.25098,1.27535 -0.93227,1.58682 -1.80409,2.52706 0,0 -2.99828,1.45051 -4.82261,2.2231 -5.17699,1.7821 -10.50789,3.10298 -15.78703,4.55215 0,0 2.98289,2.31712 0.39278,4.03935 -2.37955,1.5103 -3.94187,2.67562 -5.36219,3.36669 -2.51057,1.49229 -2.47328,0.91142 -3.36852,1.39805 -0.43561,0.64426 0.23891,0.58251 -0.0118,1.019 -0.27238,-0.0411 -0.73209,-0.33829 -2.16135,-0.0998 -1.42929,0.23854 -3.82815,1.01272 -3.82815,1.01272 0,0 2.17487,0.0641 3.80011,0.38826 0.16874,0.82343 -1.61129,0.92829 -1.61129,0.92829 0,0 -1.27703,0.1451 -2.60496,0.42854 1.06352,0.72911 1.29073,0.89866 2.61039,1.26549 2.31788,0.0123 2.71719,-0.12023 4.60595,-0.63871 1.88882,-0.51847 4.20164,-2.04681 6.20388,-3.33993 2.00224,-1.29311 3.35509,-2.22294 3.84297,-2.05986 0,0.51774 -2.19254,2.67301 -2.19254,2.67301 l -3.23652,2.56917 -3.46994,1.82783 -3.47051,1.34306 c 0,0 -2.77029,0.652 -4.30626,0.70315 -1.32585,0.038 -3.05332,0.1063 -3.05332,0.1063 0,0 -1.14138,0.29499 -1.59079,0.8345 -0.44212,0.68307 -0.70167,1.03589 -0.78199,1.48877 -0.0802,0.45288 -0.10745,0.61843 0.14273,1.06846 0.42092,0.76527 1.5526,1.27863 1.5526,1.27863 0,0 1.90501,0.6288 3.2792,0.83658 1.01954,0.23408 1.30818,0.36179 2.26099,0.49631 -0.0849,1.04081 -0.13589,3.07514 -0.13589,3.07514 z"
           id="path333" /><path
           style="fill:#ffdb89;fill-opacity:1;stroke-width:0.605747"
           d="m 384.55742,755.75821 c 0,0 0.18133,-8.51575 -0.49479,-11.20549 -0.67611,-2.68974 -0.20079,-3.35666 -0.99005,-4.87995 -1.17859,-2.27468 -2.03729,-3.85007 -3.73487,-6.10121 -1.69758,-2.25113 -1.30049,-1.9696 -2.45205,-3.53927 -1.15157,-1.56966 -7.0923,-8.50145 -9.84688,-11.31511 l -4.9264,-5.73691 -2.73731,-3.55346 c 0,0 -4.18015,-5.82313 -5.19432,-7.85456 -1.01416,-2.03143 -1.05688,-2.74364 -1.40988,-3.96305 -2.01296,0.3926 -2.64772,1.67467 -3.08738,2.65326 -0.43972,0.97859 0.30655,2.53732 0.30655,2.53732 0,0 2.1502,4.98306 3.96463,7.61513 1.81437,2.63205 4.30277,5.93246 6.54007,8.39044 2.23724,2.45798 -1.6569,-1.19403 0.51825,0.87647 3.12949,2.59093 3.3244,3.51535 5.11845,5.97898 -2.7177,-1.05305 -5.22014,-2.00545 -5.22014,-2.00545 0,0 -1.83076,-0.63003 -5.96435,-3.86184 -9.12782,-6.32638 -10.8797,-11.17475 -12.2721,-11.25423 -1.54172,1.25369 -0.5009,3.28963 -0.5009,3.28963 0,0 1.02382,2.49122 1.81875,3.72829 0.79493,1.23706 2.96612,3.64406 2.96612,3.64406 l 7.96327,6.33354 c 0,0 1.90246,2.01997 5.09124,3.85142 2.84311,1.97183 0.56822,0.11828 2.69958,1.70888 -1.37258,0.46826 -6.7448,-1.62275 -9.80761,-2.07041 -3.06281,-0.44767 -5.36638,-1.78405 -7.34528,-2.49366 -1.97897,-0.70961 -2.68319,-1.06801 -3.74492,-1.63756 -0.89518,-0.51362 -1.78091,-0.96965 -2.22112,-0.56068 -0.44021,0.40897 -0.36725,1.43804 -0.0438,2.30806 0.32348,0.87003 1.27396,1.8557 2.11813,2.73631 0.84417,0.88061 2.52065,1.96207 4.01945,2.86026 1.49886,0.8982 3.76125,1.43165 5.9656,2.20504 2.20435,0.77339 4.46497,1.35671 6.70557,2.39635 2.24061,1.03964 5.85332,3.4693 5.85332,3.4693 l 3.81415,3.8763 5.20381,3.87275 c 0,0 -1.32451,0.0444 -2.2015,-0.16909 -0.87699,-0.21346 -1.91006,-0.82006 -3.44352,-1.76545 -1.5334,-0.94538 -4.49304,-3.67845 -4.49304,-3.67845 0,0 -0.94661,-0.64252 -2.65146,-1.21594 0.19991,1.64854 2.12544,2.96759 3.69562,4.53131 1.57018,1.56372 3.48714,3.1864 5.04164,3.94936 1.55449,0.76296 2.66635,0.51022 3.86354,0.97841 1.19713,0.46819 2.46699,0.86494 2.92553,1.52605 0.45854,0.66112 0.46901,0.90786 0.18658,1.37158 -0.28249,0.46371 -1.35529,0.45338 -2.06178,0.64069 -0.70649,0.18732 -2.0539,0.14153 -2.0539,0.14153 l -1.84066,-0.33169 0.007,3.37769 z"
           id="path334" /><path
           style="fill:#ffdb89;fill-opacity:1;stroke-width:0.514271"
           d="m 355.28957,740.48972 c 0.5398,-0.20517 0.73618,-0.21765 1.54437,0.1534 3.59476,6.58283 6.70913,6.49432 7.18427,8.1561 -1.96589,-0.005 -3.5753,-1.5146 -4.80039,-2.51078 -1.22509,-0.99617 -2.57369,-3.1356 -2.57369,-3.1356 0,0 -0.70074,-1.38879 -1.35457,-2.66312 z"
           id="path335" /><path
           style="fill:#ffdb89;fill-opacity:1;stroke-width:0.449499"
           d="m 351.55828,726.43318 c 1.36523,1.19853 1.69539,1.1914 2.85375,1.69317 1.15841,0.50179 1.63189,0.64479 4.11279,1.29833 -1.50052,-1.27156 -2.1667,-1.1371 -3.33373,-1.59858 -1.16696,-0.46146 -2.08262,-1.16006 -3.63281,-1.39292 z"
           id="path336" /></g></g></g></svg>
